{
  "accessors": [
    {
      "bufferView": 1,
      "componentType": 5126,
      "count": 9960,
      "max": [
        1.822403907775879,
        0.04122757911682129,
        0.9999896287918091
      ],
      "min": [
        -1.8224036693572998,
        -0.04122757166624069,
        -0.9999895095825195
      ],
      "type": "VEC3"
    },
    {
      "bufferView": 1,
      "byteOffset": 119520,
      "componentType": 5126,
      "count": 9960,
      "max": [
        0.9797707796096802,
        1.0,
        0.9643705487251282
      ],
      "min": [
        -0.9823514819145203,
        -1.0,
        -0.9576933979988098
      ],
      "type": "VEC3"
    },
    {
      "bufferView": 2,
      "componentType": 5126,
      "count": 9960,
      "max": [
        0.9647058844566345,
        0.8745098114013672,
        0.14509804546833038,
        1.0
      ],
      "min": [
        0.9647058844566345,
        0.8745098114013672,
        0.14509804546833038,
        1.0
      ],
      "type": "VEC4"
    },
    {
      "bufferView": 0,
      "componentType": 5125,
      "count": 50604,
      "type": "SCALAR"
    },
    {
      "bufferView": 1,
      "byteOffset": 239040,
      "componentType": 5126,
      "count": 10036,
      "max": [
        1.822403907775879,
        0.039320528507232666,
        0.9999896287918091
      ],
      "min": [
        -1.8224036693572998,
        -0.04122757166624069,
        -0.9999895095825195
      ],
      "type": "VEC3"
    },
    {
      "bufferView": 1,
      "byteOffset": 359472,
      "componentType": 5126,
      "count": 10036,
      "max": [
        0.9906606674194336,
        0.8618465065956116,
        1.0
      ],
      "min": [
        -0.9905426502227783,
        -0.8985558152198792,
        -1.0
      ],
      "type": "VEC3"
    },
    {
      "bufferView": 2,
      "byteOffset": 159360,
      "componentType": 5126,
      "count": 10036,
      "max": [
        0.9647058844566345,
        0.8745098114013672,
        0.14509804546833038,
        1.0
      ],
      "min": [
        0.9647058844566345,
        0.8745098114013672,
        0.14509804546833038,
        1.0
      ],
      "type": "VEC4"
    },
    {
      "bufferView": 0,
      "byteOffset": 202416,
      "componentType": 5125,
      "count": 50700,
      "type": "SCALAR"
    }
  ],
  "asset": {
    "extras": {
      "author": "CzernO (https://sketchfab.com/czernobog)",
      "license": "SKETCHFAB Standard (https://sketchfab.com/licenses)",
      "source": "https://sketchfab.com/3d-models/lightning-bolt-symbols-5391b34e2e2b4a45af84a9e2700b33d2",
      "title": "Lightning bolt symbols"
    },
    "generator": "Sketchfab-12.68.0",
    "version": "2.0"
  },
  "bufferViews": [
    {
      "buffer": 0,
      "byteLength": 405216,
      "name": "floatBufferViews",
      "target": 34963
    },
    {
      "buffer": 0,
      "byteLength": 479904,
      "byteOffset": 405216,
      "byteStride": 12,
      "name": "floatBufferViews",
      "target": 34962
    },
    {
      "buffer": 0,
      "byteLength": 319936,
      "byteOffset": 885120,
      "byteStride": 16,
      "name": "floatBufferViews",
      "target": 34962
    }
  ],
  "buffers": [
    {
      "byteLength": 1205056,
      "uri": "scene.bin"
    }
  ],
  "extensionsRequired": [
    "KHR_materials_pbrSpecularGlossiness"
  ],
  "extensionsUsed": [
    "KHR_materials_pbrSpecularGlossiness"
  ],
  "materials": [
    {
      "doubleSided": true,
      "extensions": {
        "KHR_materials_pbrSpecularGlossiness": {
          "diffuseFactor": [
            1.0,
            0.745404209540387,
            0.028426039504420787,
            1.0
          ],
          "glossinessFactor": 0.4,
          "specularFactor": [
            0.13519501781890791,
            0.13519501781890791,
            0.13519501781890791
          ]
        }
      },
      "name": "material_0"
    }
  ],
  "meshes": [
    {
      "name": "Object_0",
      "primitives": [
        {
          "attributes": {
            "COLOR_0": 2,
            "NORMAL": 1,
            "POSITION": 0
          },
          "indices": 3,
          "material": 0,
          "mode": 4
        }
      ]
    },
    {
      "name": "Object_1",
      "primitives": [
        {
          "attributes": {
            "COLOR_0": 6,
            "NORMAL": 5,
            "POSITION": 4
          },
          "indices": 7,
          "material": 0,
          "mode": 4
        }
      ]
    }
  ],
  "nodes": [
    {
      "children": [
        1
      ],
      "matrix": [
        1.0,
        0.0,
        0.0,
        0.0,
        0.0,
        2.220446049250313e-16,
        -1.0,
        0.0,
        0.0,
        1.0,
        2.220446049250313e-16,
        0.0,
        0.0,
        0.0,
        0.0,
        1.0
      ],
      "name": "Sketchfab_model"
    },
    {
      "children": [
        2,
        3
      ],
      "name": "SubTool-0-39485.obj"
    },
    {
      "mesh": 0,
      "name": "Object_2"
    },
    {
      "mesh": 1,
      "name": "Object_3"
    }
  ],
  "scene": 0,
  "scenes": [
    {
      "name": "Sketchfab_Scene",
      "nodes": [
        0
      ]
    }
  ]
}
